<svg version="1.1" id="Layer_1" xmlns="http://www.w3.org/2000/svg" xmlns:xlink="http://www.w3.org/1999/xlink" x="0px" y="0px" viewBox="0 0 358 318" style="enable-background:new 0 0 358 318;" xml:space="preserve"><style type="text/css">.st0{fill:#00A3DA;}</style><g><path class="st0" d="M261,101.5L261,101.5c-2-2.5-5.1-3.9-8.3-3.9c-5.8,0.1-10.5,4.8-10.4,10.6c0,2.5,0.9,4.9,2.6,6.7 c6.1,7.3,10.3,18,10.3,29.9c0,11.9-4.1,22.5-10.3,29.9c-3.8,4.4-3.3,11,1.2,14.8c4.4,3.8,11,3.3,14.8-1.2c0.1-0.1,0.1-0.1,0.2-0.2 c9.5-11.4,15.2-26.7,15.2-43.4C276.2,128.2,270.5,112.9,261,101.5z"/><path class="st0" d="M289,69.2c-2-2.5-5.1-3.9-8.3-3.8c-5.8,0.1-10.4,4.9-10.3,10.7c0.1,2.5,1,4.9,2.6,6.7 c13.3,15.6,21.8,37.6,21.8,62.1c0,24.5-8.5,46.5-21.8,62.1c-3.8,4.4-3.4,11,1,14.8c4.4,3.8,11,3.4,14.8-1c0.1-0.1,0.1-0.2,0.2-0.2 c16.7-19.7,26.8-46.4,26.8-75.7C315.8,115.5,305.7,88.8,289,69.2z"/><polygon class="st0" points="280.7,65.4 280.7,65.4 280.7,65.4 &#9;"/><path class="st0" d="M102.9,144.9c0-11.9,4.1-22.5,10.3-29.9c3.8-4.4,3.3-11-1.2-14.8c-4.4-3.8-11-3.3-14.8,1.2 c-0.1,0.1-0.1,0.1-0.2,0.2c-9.5,11.4-15.2,26.7-15.2,43.4c0,16.7,5.6,32,15.2,43.4l0,0c2,2.5,5.1,3.9,8.3,3.9 c5.8-0.1,10.5-4.8,10.4-10.6c0-2.5-0.9-4.9-2.6-6.7C107,167.5,102.9,156.8,102.9,144.9z"/><path class="st0" d="M63.3,144.9c0-24.5,8.5-46.5,21.8-62.1c3.8-4.4,3.4-11-1-14.8c-4.4-3.8-11-3.4-14.8,1 c-0.1,0.1-0.1,0.2-0.2,0.2c-16.7,19.7-26.8,46.4-26.8,75.7c0,29.4,10.1,56.1,26.8,75.7c2,2.5,5.1,3.9,8.3,3.8 c5.8-0.1,10.4-4.9,10.3-10.7c-0.1-2.5-1-4.9-2.6-6.7C71.8,191.4,63.3,169.4,63.3,144.9z"/><polygon class="st0" points="77.3,224.5 77.3,224.5 77.3,224.5 &#9;"/><path class="st0" d="M179,240.8c-21.3,0-38.6,17.3-38.6,38.6S157.7,318,179,318c21.3,0,38.6-17.3,38.6-38.6S200.3,240.8,179,240.8z M179,297.1c-9.8,0-17.7-7.9-17.7-17.7c0-9.8,7.9-17.7,17.7-17.7s17.7,7.9,17.7,17.7C196.7,289.1,188.8,297.1,179,297.1z"/><path class="st0" d="M179,223.9c18.4,0,33.3-14.9,33.3-33.3V33.3C212.3,14.9,197.4,0,179,0s-33.3,14.9-33.3,33.3v157.3 C145.7,209,160.6,223.9,179,223.9z M166.6,33.3c0-6.8,5.6-12.4,12.4-12.4s12.4,5.6,12.4,12.4v157.3c0,6.8-5.6,12.4-12.4,12.4 s-12.4-5.6-12.4-12.4V33.3z"/></g></svg>