<svg data-v-1bae7592="" xmlns="http://www.w3.org/2000/svg" width="16" height="13" viewBox="0 0 16 13"><path data-v-1bae7592="" fill="#FFF" fill-rule="evenodd" d="M10.776 12.032l4.262-4.538c.255-.26.383-.59.383-.994 0-.375-.128-.692-.383-.95L10.776.967a1.242 1.242 0 0 0-.916-.39c-.355 0-.66.13-.916.39s-.384.59-.384.994c0 .403.128.735.384.994l2.045 2.161H1.742c-.37 0-.682.137-.937.41A1.377 1.377 0 0 0 .42 6.5c0 .375.128.699.384.972.255.274.568.411.937.411h9.247l-2.045 2.161c-.256.26-.384.59-.384.994 0 .403.128.735.384.994.255.26.56.39.916.39.355 0 .66-.13.916-.39z"/></svg>